<?xml version="1.0"?>
<svg xmlns="http://www.w3.org/2000/svg" xmlns:xlink="http://www.w3.org/1999/xlink" id="Gradient" viewBox="0 0 512 512" width="512" height="512"><defs><linearGradient id="linear-gradient" x1="256" y1="496" x2="256" y2="16" gradientUnits="userSpaceOnUse"><stop offset="0" stop-color="#12c2e9"/><stop offset="0.5" stop-color="#c471ed"/><stop offset="1" stop-color="#f64f59"/></linearGradient></defs><path d="M256,384a31.794,31.794,0,0,1-22.627-9.372l-144-144a32,32,0,0,1,45.254-45.255L224,274.745V48a32,32,0,0,1,64,0V274.745l89.373-89.372a32,32,0,1,1,45.254,45.254l-144,144A31.791,31.791,0,0,1,256,384ZM112,192.008a15.995,15.995,0,0,0-11.314,27.306l144,144a16,16,0,0,0,22.628,0l144-144a16,16,0,1,0-22.628-22.627L285.657,299.715A8,8,0,0,1,272,294.059V48a16,16,0,0,0-32,0V294.059a8,8,0,0,1-13.657,5.656L123.314,196.686A15.955,15.955,0,0,0,112,192.008ZM464,496H48a32.036,32.036,0,0,1-32-32V352a32,32,0,0,1,64,0v80H432V352a32,32,0,0,1,64,0V464A32.036,32.036,0,0,1,464,496ZM48,336a16.019,16.019,0,0,0-16,16V464a16.019,16.019,0,0,0,16,16H464a16.019,16.019,0,0,0,16-16V352a16,16,0,0,0-32,0v88a8,8,0,0,1-8,8H72a8,8,0,0,1-8-8V352A16.019,16.019,0,0,0,48,336Z" style="fill:url(#linear-gradient)"/></svg>
