<?xml version="1.0"?>
<svg xmlns="http://www.w3.org/2000/svg" xmlns:xlink="http://www.w3.org/1999/xlink" viewBox="0 0 128 128" width="512" height="512"><defs><linearGradient id="linear-gradient" x1="109.229" y1="109.239" x2="18.767" y2="18.777" gradientUnits="userSpaceOnUse"><stop offset="0" stop-color="#4f67d2"/><stop offset="1" stop-color="#ff656f"/></linearGradient></defs><g id="Layer_2" data-name="Layer 2"><path d="M108.686,18.244l-.006-.007-.011-.009A63.941,63.941,0,0,0,.162,59.682l0,.026C.065,61.128,0,62.556,0,64A64,64,0,1,0,108.686,18.244ZM64,3.5a60.263,60.263,0,0,1,40.948,16.013l-9.288,9.36h-6a1.749,1.749,0,0,0-1.242.518l-3.155,3.18H80.9a1.749,1.749,0,0,0-1.242.518L74.3,38.479a1.75,1.75,0,0,0,0,2.465l8.872,8.942.551,7.135L78.784,62l-5.945-1.994-3.087-5.848a1.75,1.75,0,0,0-1.548-.934H65.656a1.75,1.75,0,0,0-1.75,1.75V65.132a1.75,1.75,0,0,0,.425,1.144L68.407,71a1.729,1.729,0,0,0,.33.3l4.469,3.09,1.07,5.327H73.064L60.429,66.979V58.456a1.776,1.776,0,0,0-.068-.485l-1.621-5.616V47.218a1.75,1.75,0,0,0-.508-1.232l-2.9-2.928a1.749,1.749,0,0,0-2.484,0l-3.25,3.275H47.842V38.479a1.748,1.748,0,0,0-.508-1.232L44.122,34.01v-3.65a1.75,1.75,0,0,0-1.75-1.75h-2.3a1.749,1.749,0,0,0-1.242.518l-.855.862H33.7a1.749,1.749,0,0,0-1.242.518L20.852,42.2H17.07a1.749,1.749,0,0,0-1.242.518l-3.49,3.518a1.748,1.748,0,0,0-.508,1.232V54.5l-1.684,1.7a1.75,1.75,0,0,0-.508,1.232v3.114l-2.9,3.865H6.5L3.69,59.437A60.568,60.568,0,0,1,64,3.5Zm0,121A60.565,60.565,0,0,1,3.559,66.32l.4.7a1.75,1.75,0,0,0,1.523.89h2.14a1.751,1.751,0,0,0,1.4-.7l3.771-5.032a1.752,1.752,0,0,0,.35-1.05V58.15l1.684-1.7a1.75,1.75,0,0,0,.508-1.232V48.188L17.8,45.7H21.58a1.749,1.749,0,0,0,1.242-.518l11.6-11.692H38.7a1.749,1.749,0,0,0,1.242-.518l.677-.682v2.44a1.75,1.75,0,0,0,.508,1.232L44.342,39.2v8.883a1.75,1.75,0,0,0,1.75,1.75h4.229a1.749,1.749,0,0,0,1.242-.518l2.521-2.541,1.154,1.164V52.6a1.776,1.776,0,0,0,.068.485L56.929,58.7v9a1.748,1.748,0,0,0,.508,1.232L71.094,82.7a1.749,1.749,0,0,0,1.242.518h4.077a1.751,1.751,0,0,0,1.716-2.095L76.5,73a1.752,1.752,0,0,0-.721-1.095l-4.866-3.365-3.5-4.062V57.217l2.661,5.042a1.749,1.749,0,0,0,.981.84l4.21,1.438,3.466,1.13a1.752,1.752,0,0,0,1.784-.432l6.268-6.317a1.751,1.751,0,0,0,.5-1.367l-.662-8.575a1.749,1.749,0,0,0-.5-1.1l-8.1-8.166,3.613-3.642h4.367a1.749,1.749,0,0,0,1.242-.518l3.155-3.18h6a1.749,1.749,0,0,0,1.242-.518l9.817-9.893A60.455,60.455,0,0,1,64,124.5Zm9.2-31-6.6-8.2a1.755,1.755,0,0,0-.565-.46l-4-2.049-3.87-2.985L56.918,77a1.75,1.75,0,0,0-1.042-.95l-5.5-1.849a1.746,1.746,0,0,0-.558-.091H47.165a1.75,1.75,0,0,0-1.745,1.875l.474,6.631A1.75,1.75,0,0,0,46.5,83.82l6.968,5.925,4.051,8.708a1.754,1.754,0,0,0,.841.845l12.175,5.735a1.745,1.745,0,0,0,.746.167H74a1.75,1.75,0,0,0,1.738-1.551l.747-6.5a1.75,1.75,0,0,0-.656-1.575Zm-.76,8.2h-.767L60.43,96.4l-3.945-8.48a1.745,1.745,0,0,0-.453-.595l-6.7-5.7-.287-4.023h.483l4.5,1.513,1.114,2.513a1.747,1.747,0,0,0,.53.677l4.349,3.355a1.744,1.744,0,0,0,.271.172l3.813,1.952L70.6,95.853a1.8,1.8,0,0,0,.281.278L72.9,97.717Zm26.478.53a1.751,1.751,0,0,0-1.263-.538H82.932a1.751,1.751,0,0,0-1.139.421l-3.177,2.722a1.75,1.75,0,0,0,.152,2.774l3.795,2.589,1.812,1.4a1.746,1.746,0,0,0,1.072.367H99.664a1.75,1.75,0,0,0,1.688-1.286l1-3.645a1.751,1.751,0,0,0-.425-1.676Zm-.591,6.239H86.046l-1.38-1.07c-.028-.021-.057-.043-.086-.062l-1.951-1.331.95-.813H96.912l1.8,1.878Zm12.552-42.357-5.3-2.054a1.753,1.753,0,0,0-2.019.563L99.334,70.1H97.307a1.751,1.751,0,0,0-1.242.518L93.3,73.406H91.293a1.75,1.75,0,0,0-1.692,1.3l-1.113,4.22-2.52-.259a1.745,1.745,0,0,0-1.8,1.079l-1.427,3.492a1.75,1.75,0,0,0-.13.662v2.4a1.748,1.748,0,0,0,.508,1.232l1.938,1.953v2.84a1.75,1.75,0,0,0,1.75,1.75h8.444l2,2.016a1.749,1.749,0,0,0,1.242.518h3.466a1.75,1.75,0,0,0,1.75-1.75V90.992l3.331-3.356a1.748,1.748,0,0,0,.508-1.232V83.052h1.273a1.75,1.75,0,0,0,1.75-1.75V78.461a1.748,1.748,0,0,0-.508-1.232L108.248,75.4l3.244-3.27A1.748,1.748,0,0,0,112,70.895v-3.15A1.75,1.75,0,0,0,110.882,66.112ZM108.5,70.174l-3.96,3.99a1.75,1.75,0,0,0,0,2.465l2.533,2.553v.37H105.8a1.75,1.75,0,0,0-1.75,1.75v4.381l-3.331,3.356a1.748,1.748,0,0,0-.508,1.232v2.838h-.987l-2-2.016a1.749,1.749,0,0,0-1.242-.518H88.559V88.766a1.748,1.748,0,0,0-.508-1.232L86.112,85.58V84.248l.8-1.961,2.705.277A1.754,1.754,0,0,0,91.49,81.27l1.151-4.363h1.386a1.751,1.751,0,0,0,1.242-.518L98.035,73.6h2.159a1.751,1.751,0,0,0,1.386-.681l3.957-5.127,2.963,1.147ZM58.82,34.605a38.985,38.985,0,0,0,3.7,7.928,1.75,1.75,0,0,0,2.969,0,38.985,38.985,0,0,0,3.7-7.928,9.375,9.375,0,1,0-10.359,0ZM64,20.919a5.874,5.874,0,0,1,2.841,11.016A1.75,1.75,0,0,0,66,33a28.088,28.088,0,0,1-2,4.985A28.088,28.088,0,0,1,62,33a1.75,1.75,0,0,0-.84-1.069A5.874,5.874,0,0,1,64,20.919Zm-2.719,5.875a1.75,1.75,0,0,1,1.75-1.75h1.938a1.75,1.75,0,0,1,0,3.5H63.031A1.75,1.75,0,0,1,61.281,26.794Z" style="fill:url(#linear-gradient)"/></g></svg>
