<svg height="512pt" viewBox="0 0 512 512" width="512pt" xmlns="http://www.w3.org/2000/svg" xmlns:xlink="http://www.w3.org/1999/xlink"><linearGradient id="linear0" gradientUnits="userSpaceOnUse" x1="0" x2="511" y1="256" y2="256"><stop offset="0" stop-color="#80d8ff"/><stop offset="1" stop-color="#ea80fc"/></linearGradient><path d="m314.492188 0h-117.984376c-43.566406 0-79.007812 35.441406-79.007812 79.007812v193.949219c0 39.339844 28.90625 72.050781 66.59375 78.023438l8.035156 121.019531h-35.628906c-11.046875 0-20 8.953125-20 20s8.953125 20 20 20h198c11.046875 0 20-8.953125 20-20s-8.953125-20-20-20h-35.628906l8.035156-121.019531c37.6875-5.972657 66.59375-38.683594 66.59375-78.023438v-193.949219c0-43.566406-35.441406-79.007812-79.007812-79.007812zm-35.707032 471.996094-46.570312.003906-7.96875-120.035156h62.507812zm74.714844-199.039063c0 21.507813-17.5 39.007813-39.007812 39.007813-5.484376 0-109.46875 0-117.984376 0-21.507812 0-39.007812-17.5-39.007812-39.007813v-193.949219c0-21.507812 17.5-39.007812 39.007812-39.007812h117.984376c21.507812 0 39.007812 17.5 39.007812 39.007812zm157.5-96.957031c0 38.21875-16.074219 75.050781-44.105469 101.046875-8.089843 7.503906-20.742187 7.046875-28.261719-1.0625-7.511718-8.097656-7.039062-20.753906 1.0625-28.265625 19.894532-18.453125 31.304688-44.59375 31.304688-71.71875s-11.410156-53.265625-31.304688-71.71875c-8.101562-7.511719-8.578124-20.167969-1.0625-28.265625 7.507813-8.097656 20.164063-8.574219 28.261719-1.0625 28.03125 25.996094 44.105469 62.828125 44.105469 101.046875zm-471 0c0 27.125 11.410156 53.265625 31.304688 71.71875 8.101562 7.511719 8.574218 20.167969 1.0625 28.265625-7.527344 8.117187-20.183594 8.554687-28.261719 1.0625-28.03125-25.996094-44.105469-62.828125-44.105469-101.046875s16.074219-75.050781 44.105469-101.046875c8.097656-7.511719 20.753906-7.035156 28.261719 1.0625 7.515624 8.101563 7.039062 20.753906-1.0625 28.265625-19.894532 18.453125-31.304688 44.59375-31.304688 71.71875zm273.5-51.980469c0 11.042969-8.953125 20-20 20h-76c-11.046875 0-20-8.957031-20-20 0-11.046875 8.953125-20 20-20h76c11.046875 0 20 8.953125 20 20zm0 103.960938c0 11.046875-8.953125 20-20 20h-76c-11.046875 0-20-8.953125-20-20 0-11.042969 8.953125-20 20-20h76c11.046875 0 20 8.957031 20 20zm0 0" fill="url(#linear0)"/></svg>