<?xml version="1.0" encoding="iso-8859-1"?>
<!-- Generator: Adobe Illustrator 22.1.0, SVG Export Plug-In . SVG Version: 6.00 Build 0)  -->
<svg xmlns="http://www.w3.org/2000/svg" xmlns:xlink="http://www.w3.org/1999/xlink" version="1.1" id="Layer_1_1_" x="0px" y="0px" viewBox="0 0 64 64" style="enable-background:new 0 0 64 64;" xml:space="preserve" width="512" height="512">
<linearGradient id="SVGID_1_" gradientUnits="userSpaceOnUse" x1="32" y1="63" x2="32" y2="1">
	<stop offset="0" style="stop-color:#9F2FFF"/>
	<stop offset="1" style="stop-color:#0BB1D3"/>
</linearGradient>
<path style="fill:url(#SVGID_1_);" d="M36,30v-2h-8v2c0,2.206,1.794,4,4,4S36,32.206,36,30z M30,30h4c0,1.103-0.897,2-2,2  S30,31.103,30,30z M36,23h-2c0-1.654,1.346-3,3-3s3,1.346,3,3h-2c0-0.552-0.448-1-1-1S36,22.448,36,23z M28,23c0-0.552-0.448-1-1-1  s-1,0.448-1,1h-2c0-1.654,1.346-3,3-3s3,1.346,3,3H28z M53.355,43.018c-1.136-1.031-2.514-1.724-4.041-1.979l-2.367-0.394  l6.741-3.37l-0.981-0.981C49.672,33.258,48,29.222,48,24.929V17c0-8.822-7.178-16-16-16S16,8.178,16,17v7.929  c0,4.293-1.672,8.329-4.707,11.364l-0.981,0.981l6.741,3.37l-2.367,0.394c-1.527,0.255-2.905,0.948-4.041,1.979  C5.296,43.207,1,47.606,1,53c0,5.514,4.486,10,10,10h42c5.514,0,10-4.486,10-10C63,47.606,58.704,43.207,53.355,43.018z   M50.359,36.702l-6.767,3.383L38,39.153v-2.777c2.456-1.425,4.356-3.693,5.312-6.408c1.189-0.075,2.264-0.556,3.085-1.321  C47.015,31.614,48.357,34.376,50.359,36.702z M28,39.586V37.3c1.253,0.445,2.596,0.7,4,0.7s2.747-0.255,4-0.7v2.286l-4,4L28,39.586z   M30.783,45.197l-1.188,2.377c-2.282-1.506-4.123-3.64-5.294-6.111l2.356-0.393L30.783,45.197z M22,26v-5.001  C22,19.346,23.346,18,24.999,18h10.567c1.191,0,2.312-0.464,3.154-1.307l0.158-0.158C39.219,16.195,39.69,16,40.172,16  C41.18,16,42,16.82,42,17.828V26c0,5.514-4.486,10-10,10S22,31.514,22,26z M37.343,41.071l2.356,0.393  c-1.171,2.471-3.012,4.604-5.294,6.111l-1.188-2.377L37.343,41.071z M43.84,27.866C43.936,27.256,44,26.636,44,26v-3.816  c1.161,0.414,2,1.514,2,2.816C46,26.361,45.084,27.5,43.84,27.866z M18,17c0-7.72,6.28-14,14-14s14,6.28,14,14v4.026  c-0.584-0.442-1.257-0.773-2-0.924v-2.273C44,15.718,42.282,14,40.172,14c-1.022,0-1.984,0.398-2.707,1.121l-0.158,0.158  C36.842,15.744,36.224,16,35.566,16H24.999c-2.446,0-4.478,1.768-4.907,4.092c-0.778,0.144-1.484,0.474-2.092,0.934V17z M20,22.184  V26c0,0.636,0.064,1.256,0.16,1.865C18.916,27.5,18,26.361,18,25C18,23.698,18.839,22.598,20,22.184z M13.641,36.702  c2.003-2.326,3.345-5.088,3.963-8.055c0.821,0.765,1.896,1.246,3.085,1.321c0.956,2.715,2.856,4.983,5.312,6.408v2.777l-5.593,0.932  L13.641,36.702z M11,61c-4.411,0-8-3.589-8-8s3.589-8,8-8s8,3.589,8,8S15.411,61,11,61z M16.974,61C19.412,59.175,21,56.273,21,53  c0-4.563-3.077-8.415-7.262-9.609c0.409-0.167,0.831-0.305,1.276-0.379l7.251-1.209c1.404,3.239,3.811,6.009,6.837,7.825  l1.309,0.786L32,47.236l1.589,3.178l1.308-0.786c3.028-1.816,5.434-4.587,6.838-7.825l7.251,1.209  c0.445,0.074,0.867,0.212,1.276,0.379C46.077,44.585,43,48.437,43,53c0,3.273,1.588,6.175,4.026,8H16.974z M53,61  c-4.411,0-8-3.589-8-8s3.589-8,8-8s8,3.589,8,8S57.411,61,53,61z M57,53h2c0,3.309-2.691,6-6,6s-6-2.691-6-6h2c0,2.206,1.794,4,4,4  S57,55.206,57,53z M49,50c0-0.552,0.448-1,1-1s1,0.448,1,1c0,0.552-0.448,1-1,1S49,50.552,49,50z M55,50c0-0.552,0.448-1,1-1  s1,0.448,1,1c0,0.552-0.448,1-1,1S55,50.552,55,50z M17,53c0,3.309-2.691,6-6,6s-6-2.691-6-6h2c0,2.206,1.794,4,4,4s4-1.794,4-4H17z   M7,50c0-0.552,0.448-1,1-1s1,0.448,1,1c0,0.552-0.448,1-1,1S7,50.552,7,50z M13,50c0-0.552,0.448-1,1-1s1,0.448,1,1  c0,0.552-0.448,1-1,1S13,50.552,13,50z"/>
</svg>
